<svg width="68" height="69" viewBox="0 0 68 69" fill="none" xmlns="http://www.w3.org/2000/svg">
<rect y="0.366455" width="68" height="68" rx="10" fill="white"/>
<path d="M54.826 23.7819L52.6592 24.9661L49.7538 28.4256L46.4815 30.6853L44.6608 30.6179L42.6475 27.9721L37.2683 31.9991L42.0934 35.7307L43.4122 37.9981L42.7385 40.2267L33.4759 45.4664L33.2028 46.4485L34.0221 49.4856L33.7958 50.5947L32.8958 50.3589L29.9331 46.5392L29.3999 44.8989L30.8487 43.7328L32.5135 43.795L35.0392 40.7372L37.4868 38.7392L33.6164 37.4539L27.4516 43.1212L27.0537 44.277L24.8531 45.1062L17.341 51.5898L16.5607 52.6963L15.9702 53.5333L15.0911 55.9977L15.346 57.581L14.8596 57.6276L13.4238 56.6377L13.5902 52.8699L13.174 50.2189L14.6125 49.0399L16.4879 49.4286L16.5607 49.3146L19.7991 44.1629L24.58 40.3718L28.6768 30.4002L36.3111 22.2504L34.3134 21.9783L32.2429 20.934L27.7092 24.6474L26.4034 26.4043L25.9222 26.5572L25.03 26.8423L24.4239 25.9923L24.645 24.0047L25.9222 23.4606L26.9444 23.0252L31.4002 17.8503L37.0941 18.1431L40.6706 19.418L42.4316 18.5525L42.2911 16.3058L43.8284 14.6344L46.3047 14.5981L47.9772 15.8083L48.063 18.0913L48.461 19.856L48.0344 20.0166L47.5298 21.8436L46.5388 22.1934L44.9027 22.0794L44.5437 22.7583L45.9951 24.9972L46.4841 26.7956L51.6916 23.8622L52.139 22.31L53.1378 21.2709L54.324 22.0742L54.826 23.7819Z" fill="#71324A"/>
</svg>
