<svg width="266" height="229" viewBox="0 0 266 229" fill="none" xmlns="http://www.w3.org/2000/svg">
<g clip-path="url(#clip0_1015_2957)">
<rect width="266" height="228.594" fill="white"/>
<g clip-path="url(#clip1_1015_2957)">
<path d="M134.899 220.525C134.899 220.525 137.522 254.646 137.188 281.696C136.942 303.385 117.939 353.256 117.939 353.256L114.227 353.636C114.227 353.636 117.851 311.866 120.665 288.403C123.049 268.512 114.306 232.665 114.306 232.665C114.306 232.665 114.155 326.103 115.578 353.415H111.04C111.04 353.415 102.297 337.831 98.8876 311.62C97.8782 303.757 99.7301 290.106 98.8876 281.696C96.4476 257.149 92.7598 227.541 95.5256 212.464" fill="#3D9DF0"/>
<path d="M115.618 353.437C115.645 353.329 115.68 353.223 115.722 353.12L116.071 352.201C116.222 351.797 116.421 351.299 116.644 350.713C116.763 350.42 116.882 350.103 117.017 349.77C117.152 349.438 117.295 349.073 117.43 348.685C118.559 345.621 120.164 341.163 121.778 335.549C123.653 328.965 125.128 322.275 126.197 315.515C126.793 311.698 127.286 307.675 127.683 303.486C128.081 299.297 128.319 294.958 128.478 290.508C128.788 281.592 128.597 273.087 128.343 265.359C128.089 257.63 127.755 250.678 127.548 244.826C127.341 238.974 127.214 234.254 127.182 230.976C127.182 229.345 127.182 228.07 127.182 227.215C127.182 226.779 127.182 226.423 127.182 226.233C127.172 226.122 127.172 226.011 127.182 225.9C127.191 226.011 127.191 226.122 127.182 226.233C127.182 226.455 127.182 226.779 127.182 227.207C127.182 228.07 127.23 229.345 127.286 230.976C127.373 234.247 127.54 238.974 127.802 244.818C128.065 250.662 128.414 257.614 128.708 265.343C129.003 273.071 129.185 281.592 128.875 290.524C128.724 294.982 128.478 299.337 128.081 303.534C127.683 307.731 127.254 311.785 126.634 315.586C125.54 322.36 124.021 329.059 122.088 335.644C120.435 341.258 118.774 345.7 117.589 348.757C117.446 349.137 117.295 349.493 117.152 349.826C117.009 350.158 116.882 350.475 116.763 350.768L116.143 352.241L115.753 353.136C115.721 353.241 115.675 353.342 115.618 353.437Z" fill="#32383F"/>
<path d="M112.415 353.277C112.382 353.166 112.36 353.052 112.352 352.937C112.352 352.715 112.264 352.382 112.193 351.947C112.074 351.068 111.891 349.777 111.652 348.122C111.199 344.796 110.548 339.982 109.769 334.027C109.379 331.058 108.974 327.795 108.529 324.295C108.084 320.795 107.647 317.05 107.178 313.106C106.272 305.227 105.342 296.549 104.547 287.427C103.752 278.304 103.235 269.578 102.902 261.652C102.838 259.667 102.775 257.735 102.711 255.855C102.711 255.38 102.695 254.913 102.663 254.454V253.076C102.663 252.165 102.663 251.263 102.623 250.384C102.584 249.505 102.623 248.634 102.623 247.786C102.623 246.939 102.623 246.1 102.623 245.276C102.623 243.637 102.623 242.109 102.623 240.565C102.623 237.563 102.727 234.847 102.79 232.464C102.83 231.276 102.854 230.168 102.902 229.146C102.949 228.125 103.005 227.198 103.053 226.359C103.148 224.68 103.22 223.381 103.275 222.494L103.347 221.497C103.348 221.382 103.361 221.268 103.386 221.156C103.395 221.27 103.395 221.383 103.386 221.497C103.386 221.726 103.386 222.059 103.386 222.502C103.386 223.389 103.315 224.688 103.251 226.367C103.251 227.198 103.188 228.132 103.148 229.154C103.108 230.175 103.1 231.284 103.077 232.472C103.077 234.847 102.949 237.571 102.981 240.565V245.268C102.981 246.06 102.981 246.923 103.021 247.77C103.061 248.618 103.021 249.489 103.069 250.368C103.116 251.247 103.069 252.149 103.116 253.06C103.116 253.511 103.116 253.971 103.116 254.438L103.164 255.832C103.233 257.711 103.304 259.643 103.379 261.628C103.736 269.547 104.285 278.257 105.064 287.371C105.842 296.485 106.772 305.164 107.647 313.051C108.108 317.01 108.529 320.732 108.958 324.24C109.387 327.748 109.753 331.002 110.142 333.98C110.873 339.934 111.462 344.757 111.875 348.083C112.074 349.753 112.225 351.044 112.328 351.923C112.328 352.367 112.407 352.715 112.431 352.929C112.435 353.045 112.43 353.162 112.415 353.277Z" fill="#32383F"/>
<path d="M92.9271 126.556L103.855 124.869L126.841 125.115L132.984 126.215L119.012 181.004L101.813 178.937L92.9271 126.556Z" fill="#E0E0E0"/>
<path d="M114.03 130.839C114.03 130.839 106.614 180.409 114.824 198.036L120.499 203.151L125.951 196.294C125.951 196.294 117.852 179.158 116.843 159.164C115.834 139.169 116.525 130.76 116.525 130.76L114.03 130.839Z" fill="#F9AC30"/>
<path d="M105.938 114.362V124.719C105.938 124.719 111.319 132.226 119.394 127.594L123.908 124.426V113.53L105.938 114.362Z" fill="#FCCAB1"/>
<path d="M103.235 124.678L103.561 120.924L113.393 125.588L112.932 131.028L103.235 124.678Z" fill="#EAEAEA"/>
<path d="M113.393 125.589L114.903 129.089L113.052 129.588L113.393 125.589Z" fill="#CECECE"/>
<path d="M114.904 129.089L116.144 125.589L117.479 129.857L114.904 129.089Z" fill="#CECECE"/>
<path d="M125.204 121.17C125.204 121.312 116.144 125.588 116.144 125.588L117.487 130.759L126.857 125.113L125.204 121.17Z" fill="#EAEAEA"/>
<path d="M86.2195 129.526C86.6964 128.283 86.9666 127.594 86.9666 127.594L101.201 125.116L113.052 173.886L113.711 215.015L109.173 228.215L90.0186 227.059L94.0799 200.991L89.6291 159.173" fill="#4BABFF"/>
<path d="M139.574 150.986C139.196 142.992 140.301 134.998 142.832 127.404L126.857 125.116L113.052 173.886L113.155 216.646L115.945 226.267L139.296 224.684C139.296 224.684 133.629 179.437 133.549 178.495C133.47 177.552 139.574 150.986 139.574 150.986Z" fill="#4BABFF"/>
<path d="M87.1803 129.588C87.2739 129.953 87.3299 130.328 87.3472 130.704C87.4267 131.433 87.53 132.478 87.6651 133.761C87.9354 136.342 88.3487 139.898 88.8096 143.825C89.2706 147.753 89.6044 151.324 89.8111 153.922C89.9064 155.212 89.9621 156.297 89.978 156.986C90.0208 157.362 90.0208 157.742 89.978 158.118C89.8795 157.754 89.8235 157.379 89.8111 157.002C89.7316 156.273 89.6203 155.236 89.4852 153.945C89.2229 151.372 88.8096 147.816 88.3407 143.881C87.8718 139.945 87.5459 136.382 87.3393 133.793C87.2518 132.494 87.1962 131.417 87.1724 130.72C87.1288 130.344 87.1315 129.964 87.1803 129.588Z" fill="#3C87DF"/>
<path d="M98.4509 125.591C98.7529 125.543 101.201 153.227 101.201 153.227L105.97 159.047L105.175 162.792L113.043 177.125V173.886L101.201 125.116L98.4509 125.591Z" fill="#3C87DF"/>
<path d="M113.059 128.67L117.097 128.503L117.947 130.8L113.004 131.14L113.059 128.67Z" fill="#E8900F"/>
<path d="M114.077 128.503L113.854 132.091L116.398 132.502L116.525 128.559L114.077 128.503Z" fill="#F9AC30"/>
<path d="M142.919 127.709C142.991 127.709 142.617 129.016 142.124 131.106C141.989 131.637 141.846 132.207 141.711 132.824C141.576 133.442 141.417 134.099 141.266 134.796C140.98 136.19 140.686 137.734 140.471 139.357C140.257 140.98 140.026 142.525 139.875 143.95C139.812 144.663 139.74 145.336 139.692 145.969C139.645 146.603 139.605 147.189 139.565 147.727C139.544 148.892 139.462 150.055 139.319 151.211C139.248 150.905 139.219 150.591 139.231 150.277C139.231 149.968 139.231 149.604 139.231 149.168C139.231 148.733 139.231 148.25 139.231 147.711C139.231 147.173 139.231 146.571 139.303 145.937C139.374 145.304 139.382 144.623 139.438 143.91C139.565 142.485 139.748 140.917 140.002 139.278C140.257 137.639 140.567 136.111 140.877 134.701C141.043 134.004 141.194 133.339 141.361 132.729C141.528 132.12 141.687 131.542 141.838 131.019C141.989 130.496 142.14 130.037 142.267 129.625C142.395 129.214 142.522 128.833 142.625 128.58C142.688 128.279 142.787 127.987 142.919 127.709Z" fill="#3C87DF"/>
<path d="M113.099 176.665L120.992 160.678L119.887 157.669L125.069 152.514L128.924 125.472L126.841 125.116L113.052 173.886L113.099 176.665Z" fill="#3C87DF"/>
<path d="M126.387 154.881L130.131 149.401C130.131 149.401 130.838 149.662 131.108 149.749C131.379 149.836 131.458 154.611 131.458 154.611L126.387 154.881Z" fill="#E0E0E0"/>
<path d="M125.608 154.444H131.911C132.089 154.932 132.089 155.468 131.911 155.956L125.378 156.035L125.608 154.444Z" fill="#3C87DF"/>
<path d="M113.416 214.988C113.323 214.494 113.27 213.994 113.257 213.492C113.186 212.526 113.098 211.116 113.019 209.398C112.852 205.945 112.701 201.17 112.661 195.889C112.622 190.607 112.709 185.832 112.82 182.372C112.884 180.646 112.94 179.244 113.003 178.278C113.007 177.776 113.052 177.276 113.138 176.781C113.206 177.28 113.224 177.784 113.194 178.286C113.194 179.26 113.194 180.661 113.194 182.38C113.194 185.84 113.138 190.615 113.194 195.889C113.25 201.162 113.329 205.929 113.408 209.39C113.408 211.116 113.472 212.51 113.496 213.484C113.509 213.987 113.482 214.49 113.416 214.988Z" fill="#3C87DF"/>
<path d="M116.524 187.933C116.524 188.095 116.46 188.25 116.345 188.364C116.23 188.478 116.074 188.543 115.912 188.543C115.75 188.543 115.594 188.478 115.479 188.364C115.365 188.25 115.3 188.095 115.3 187.933C115.3 187.771 115.365 187.616 115.479 187.502C115.594 187.387 115.75 187.323 115.912 187.323C116.074 187.323 116.23 187.387 116.345 187.502C116.46 187.616 116.524 187.771 116.524 187.933Z" fill="#3C87DF"/>
<path d="M116.524 195.89C116.524 196.011 116.488 196.128 116.421 196.229C116.354 196.329 116.258 196.407 116.146 196.453C116.035 196.499 115.911 196.512 115.793 196.488C115.674 196.464 115.565 196.406 115.479 196.321C115.394 196.236 115.336 196.127 115.312 196.009C115.288 195.891 115.3 195.768 115.347 195.657C115.393 195.545 115.472 195.45 115.572 195.383C115.673 195.316 115.791 195.28 115.912 195.28C115.993 195.28 116.072 195.296 116.146 195.327C116.221 195.357 116.288 195.402 116.345 195.459C116.402 195.515 116.447 195.583 116.478 195.657C116.508 195.731 116.524 195.81 116.524 195.89Z" fill="#3C87DF"/>
<path d="M127.436 182.618C127.436 182.753 122.429 183.735 116.198 184.82C109.967 185.904 104.888 186.672 104.864 186.546C104.84 186.419 109.879 185.429 116.11 184.344C122.342 183.26 127.412 182.491 127.436 182.618Z" fill="#3C87DF"/>
<path d="M99.3894 92.5859C98.5231 92.871 93.8259 93.8767 95.4154 99.9423C97.005 106.008 101.106 104.59 101.106 104.59L99.3894 92.5859Z" fill="#EAB69B"/>
<path d="M99.604 102.323C99.604 102.323 99.4848 102.37 99.2782 102.323C98.979 102.278 98.6907 102.179 98.4277 102.03C98.0471 101.803 97.715 101.505 97.4501 101.151C97.2903 100.936 97.1543 100.705 97.0448 100.462C96.9308 100.209 96.8481 99.9428 96.7984 99.6699C96.7186 99.1188 96.7731 98.5565 96.9574 98.0308C97.1014 97.6078 97.3283 97.2175 97.625 96.8826C97.8205 96.6562 98.0546 96.4659 98.3165 96.3204C98.5072 96.2254 98.6264 96.2016 98.6423 96.2254C98.6582 96.2491 98.2926 96.5263 97.8952 97.0964C97.6654 97.4221 97.4909 97.7833 97.3786 98.1654C97.1605 98.8675 97.1942 99.6234 97.474 100.303C97.5675 100.518 97.6792 100.725 97.8078 100.921C98.0241 101.245 98.2926 101.531 98.6026 101.768C99.1748 102.164 99.6199 102.243 99.604 102.323Z" fill="#D68772"/>
<path d="M100.024 99.5685C99.9609 99.5685 99.8337 99.418 99.5715 99.2201C99.2565 98.9581 98.8522 98.8276 98.4429 98.8558C98.1722 98.8852 97.9129 98.9803 97.6878 99.133C97.5169 99.253 97.3643 99.397 97.2348 99.5606L96.9964 99.426C97.1474 99.2676 97.2586 99.1884 97.2984 99.2122C97.3381 99.2359 97.2984 99.3705 97.2268 99.5685L96.9884 99.4339C97.0829 99.179 97.2417 98.9527 97.4494 98.7766C97.7201 98.5371 98.059 98.3876 98.419 98.349C98.7175 98.3264 99.0166 98.3839 99.2853 98.5153C99.4984 98.618 99.6858 98.7668 99.8337 98.9509C100.064 99.2834 100.08 99.5685 100.024 99.5685Z" fill="#D68772"/>
<path d="M130.457 91.6489C131.316 91.934 136.021 92.9397 134.431 99.0053C132.842 105.071 128.74 103.653 128.74 103.653L130.457 91.6489Z" fill="#EAB69B"/>
<path d="M130.235 101.429C130.235 101.35 130.672 101.262 131.229 100.859C131.539 100.622 131.807 100.336 132.023 100.011C132.153 99.8188 132.265 99.6147 132.357 99.4016C132.447 99.1713 132.514 98.9325 132.556 98.6889C132.627 98.2094 132.592 97.7201 132.453 97.2557C132.343 96.874 132.171 96.5128 131.944 96.1867C131.547 95.6165 131.149 95.3948 131.197 95.3156C131.244 95.2364 131.324 95.3156 131.515 95.4106C131.778 95.5541 132.012 95.7447 132.206 95.9729C132.508 96.3053 132.738 96.6961 132.882 97.121C133.08 97.6491 133.142 98.2178 133.065 98.776C133.021 99.0494 132.941 99.3157 132.826 99.5679C132.717 99.8115 132.581 100.043 132.421 100.257C132.148 100.62 131.805 100.924 131.411 101.152C131.152 101.301 130.866 101.401 130.569 101.445C130.354 101.476 130.243 101.452 130.235 101.429Z" fill="#D68772"/>
<path d="M129.814 98.657C129.758 98.657 129.814 98.3799 130.028 98.0631C130.18 97.8825 130.366 97.7344 130.577 97.6276C130.845 97.4946 131.145 97.4397 131.443 97.4692C131.805 97.5029 132.147 97.6498 132.421 97.8889C132.613 98.062 132.761 98.2795 132.85 98.5224L132.619 98.6649C132.532 98.459 132.5 98.3323 132.548 98.3086C132.595 98.2848 132.691 98.3561 132.842 98.5145L132.611 98.6491C132.479 98.4856 132.323 98.3417 132.15 98.2215C131.913 98.0636 131.64 97.9682 131.356 97.9443C130.95 97.9244 130.551 98.0541 130.235 98.3086C130.036 98.5066 129.885 98.6887 129.814 98.657Z" fill="#D68772"/>
<path d="M126.308 117.371C121.54 122.296 104.34 118.788 101.964 116.579C99.5875 114.37 98.2443 86.1086 98.2443 86.1086C97.2826 71.5464 105.668 70.6437 113.735 68.5849C121.802 66.5261 130.425 71.1663 131.22 83.1946C131.204 83.1946 130.139 113.372 126.308 117.371Z" fill="#FCCAB1"/>
<path d="M99.5154 103.829C111.437 104.162 121.952 103.251 130.298 100.297C130.298 100.297 128.78 112.698 128.366 114.02C127.42 117.013 126.983 120.838 114.283 119.722C101.582 118.605 101.852 117.599 100.811 114.749C100.239 113.181 99.428 103.956 99.5154 103.829Z" fill="#B76A2B"/>
<path d="M108.394 107.441C109.395 108.216 110.552 108.766 111.787 109.053C113.022 109.34 114.305 109.357 115.547 109.104C116.8 108.818 117.98 108.274 119.01 107.506C120.039 106.738 120.896 105.764 121.523 104.646" fill="#ECE9DE"/>
<path d="M117.701 99.7419C117.52 99.9615 117.305 100.151 117.065 100.304C116.448 100.767 115.8 101.188 115.126 101.563C114.655 101.831 114.16 102.054 113.647 102.228C113.504 102.276 113.358 102.316 113.21 102.347L112.972 102.395C112.89 102.399 112.808 102.399 112.725 102.395C112.628 102.413 112.529 102.413 112.431 102.395C112.304 102.357 112.196 102.272 112.129 102.157C112.042 101.98 111.998 101.784 112.002 101.587C112.003 101.243 112.041 100.901 112.114 100.565C112.177 100.233 112.265 99.8924 112.36 99.5519C112.543 98.8709 112.773 98.1819 113.02 97.4851C113.512 96.0835 114.045 94.777 114.538 93.5892C114.657 93.2962 114.784 93.0111 114.895 92.7261C114.895 92.6627 114.951 92.5915 114.983 92.5281V92.4331C114.983 92.4331 114.983 92.3856 114.983 92.3539V92.1718C114.983 92.1084 114.983 92.0372 114.983 91.9659C114.935 91.4195 114.848 90.889 114.776 90.3822C114.552 89.3631 114.388 88.332 114.283 87.2939C114.419 87.541 114.513 87.8085 114.561 88.0858C114.712 88.6084 114.911 89.3686 115.11 90.3188C115.228 90.8416 115.318 91.3703 115.38 91.9025C115.384 91.9764 115.384 92.0504 115.38 92.1243V92.441V92.5835C115.372 92.6246 115.358 92.6645 115.34 92.7023L115.261 92.9161C115.15 93.2012 115.038 93.4942 114.919 93.7872C114.45 94.9829 113.934 96.2894 113.441 97.6752C113.202 98.372 112.972 99.053 112.781 99.7102C112.686 100.043 112.606 100.367 112.535 100.692C112.466 100.994 112.426 101.301 112.416 101.611C112.436 101.73 112.482 101.843 112.551 101.943C112.551 101.943 112.551 101.943 112.598 101.991H112.956H113.163C113.299 101.967 113.435 101.935 113.568 101.896C114.039 101.719 114.496 101.507 114.935 101.262C115.793 100.835 116.461 100.423 116.93 100.146C117.166 99.9745 117.426 99.8385 117.701 99.7419Z" fill="#E2A893"/>
<path d="M118.377 83.9855L128.002 84.904L128.391 82.6869L118.432 80.2559L118.377 83.9855Z" fill="#B9682B"/>
<path d="M118.774 92.0206C118.774 92.0206 120.093 86.9606 123.765 87.4436C127.437 87.9267 127.739 92.369 127.739 92.369L118.774 92.0206Z" fill="#EFA98E"/>
<path d="M118.774 92.0197C118.993 91.0373 119.55 90.162 120.348 89.5448C121.146 88.9275 122.135 88.607 123.145 88.6385C126.992 88.4643 127.763 92.3681 127.763 92.3681C127.763 92.3681 120.832 92.1543 118.774 92.0197Z" fill="#ECE9DE"/>
<path d="M121.031 92.1343C121.031 92.1343 121.135 89.4658 123.543 89.3629C125.951 89.2599 125.864 92.3719 125.864 92.3719C124.25 92.5359 122.621 92.4558 121.031 92.1343Z" fill="#603934"/>
<path d="M127.763 92.369C127.675 92.369 127.516 91.696 126.92 90.7853C126.566 90.2548 126.106 89.8021 125.569 89.455C124.914 89.0466 124.156 88.8298 123.383 88.8294C122.604 88.8354 121.84 89.0427 121.166 89.4312C120.603 89.7383 120.106 90.1526 119.704 90.6507C119.02 91.5217 118.829 92.2344 118.75 92.1869C118.67 92.1394 118.75 91.9969 118.829 91.688C119.127 90.7207 119.727 89.8734 120.542 89.2695C121.357 88.6656 122.344 88.3367 123.36 88.3306C124.226 88.3311 125.072 88.5874 125.792 89.067C126.366 89.4612 126.842 89.9813 127.183 90.5874C127.542 91.1144 127.743 91.7323 127.763 92.369Z" fill="#443949"/>
<path d="M126.698 91.0232C126.698 91.1578 126.277 91.3082 125.729 91.3082C125.18 91.3082 124.743 91.1578 124.751 91.0232C124.759 90.8885 125.196 90.8252 125.729 90.8252C126.261 90.8252 126.69 90.8965 126.698 91.0232Z" fill="white"/>
<path d="M103.013 91.7212C103.013 91.7212 104.333 86.6613 108.005 87.1443C111.676 87.6274 111.979 92.0697 111.979 92.0697L103.013 91.7212Z" fill="#EFA98E"/>
<path d="M103.013 91.7204C103.235 90.7373 103.793 89.8619 104.592 89.2447C105.392 88.6276 106.382 88.3074 107.393 88.3392C111.231 88.1649 112.002 92.0688 112.002 92.0688C112.002 92.0688 105.064 91.855 103.013 91.7204Z" fill="#ECE9DE"/>
<path d="M105.763 91.8316C105.763 91.8316 105.874 89.1631 108.282 89.0601C110.691 88.9572 110.603 92.0692 110.603 92.0692C108.987 92.2282 107.356 92.1482 105.763 91.8316Z" fill="#603934"/>
<path d="M111.986 92.0692C111.907 92.0692 111.748 91.3882 111.144 90.4855C110.792 89.9552 110.335 89.5024 109.8 89.1551C109.148 88.7289 108.387 88.4956 107.607 88.4821C106.829 88.4895 106.066 88.6938 105.389 89.076C104.833 89.3929 104.344 89.8152 103.951 90.3192C103.275 91.1902 103.084 91.9029 102.997 91.8474C102.91 91.792 102.997 91.6653 103.076 91.3486C103.424 90.2394 104.168 89.2957 105.167 88.6959C105.9 88.2449 106.745 88.0038 107.607 87.999C108.473 87.9981 109.32 88.2545 110.039 88.7355C110.613 89.1319 111.091 89.6514 111.438 90.2558C111.795 90.7938 111.985 91.4243 111.986 92.0692Z" fill="#443949"/>
<path d="M110.96 90.7249C110.96 90.8595 110.539 91.0021 109.991 91.0021C109.442 91.0021 109.005 90.8595 109.013 90.7249C109.021 90.5903 109.466 90.519 109.991 90.519C110.515 90.519 110.913 90.5903 110.96 90.7249Z" fill="white"/>
<path d="M102.02 84.9029C102.02 84.9029 112.137 84.7524 112.201 84.5624C112.264 84.3723 112.201 80.7061 112.201 80.7061L102.02 82.7966V84.9029Z" fill="#B9682B"/>
<path d="M99.5559 95.3174C99.5559 95.3174 97.3464 78.1895 101.424 73.7155C101.424 73.7155 121.023 79.6941 124.361 77.2314C127.699 74.7687 128.001 73.4384 128.001 73.4384C128.001 73.4384 129.44 81.0481 130.235 83.9859C131.03 86.9237 130.235 92.6092 130.235 92.6092L131.554 92.0549C131.554 92.0549 132.81 72.4248 131.276 71.53C129.742 70.6352 122.438 63.2393 115.531 65.3694C108.624 67.4995 96.7106 73.2404 96.655 77.4452C96.5993 81.6499 98.8327 95.5391 98.8327 95.5391L99.5559 95.3174Z" fill="#B76A2B"/>
<path d="M125.959 62.8111C128.558 64.9571 127.819 68.8926 127.819 68.8926C128.244 68.5958 128.75 68.4366 129.27 68.4366C129.789 68.4366 130.295 68.5958 130.72 68.8926C132.087 69.9695 131.92 74.3881 131.92 74.3881L123.503 71.5295L111.693 66.7308C111.693 66.7308 123.36 60.6652 125.959 62.8111Z" fill="#B76A2B"/>
<path d="M101.423 73.7144C101.423 73.7144 96.2644 77.3173 96.6538 79.9225L97.1386 83.5492L99.1494 81.2132C99.1494 81.2132 99.9204 76.47 101.423 73.7144Z" fill="#D17933"/>
<path d="M119.013 63.5394C123.242 70.769 103.737 74.3878 103.737 74.3878L109.301 75.8369C127.907 71.062 122.781 62.4941 122.781 62.4941" fill="#D17933"/>
<path d="M118.646 77.6433C118.646 77.6433 127.651 72.9872 127.818 68.8933C127.818 68.8933 128.915 68.0302 129.813 68.4578C129.813 68.4578 130.377 73.5019 121.643 77.8254L118.646 77.6433Z" fill="#D17933"/>
<path d="M128.391 75.48C128.391 75.48 131.824 75.6779 131.928 76.5331L132.039 80.2628L128.86 77.8872L128.391 75.48Z" fill="#D17933"/>
<path d="M120.149 84.159L119.41 80.4927L121.643 81.0391L122.406 84.3728L120.149 84.159Z" fill="#D17933"/>
<path d="M124.004 84.5239L123.686 81.5386L124.234 81.6732L124.989 84.6189L124.004 84.5239Z" fill="#D17933"/>
<path d="M111.303 80.8877L110.476 84.6173L108.664 84.7599L109.745 81.2124L111.303 80.8877Z" fill="#D17933"/>
<path d="M106.804 84.8071L107.495 81.6714L106.597 82.0594L106.128 83.9836L105.874 82.0832L104.738 82.2415L104.992 84.8071H106.804Z" fill="#D17933"/>
<path d="M126.722 203.879L136.466 202.137L138.167 205.447L127.548 207.703L126.722 203.879Z" fill="#3C87DF"/>
<path d="M93.1823 204.243L100.916 206.001L100.24 209.501L91.6802 207.703L93.1823 204.243Z" fill="#3C87DF"/>
<path d="M142.711 127.303C142.711 127.303 158.79 172.229 145.104 184.028C144.345 184.676 143.405 185.076 142.41 185.176C141.415 185.275 140.414 185.067 139.541 184.582L93.7607 172.759L100.914 167.129C100.914 167.129 134.208 172.229 136.616 168.46C140.463 162.426 126.004 132.015 142.711 127.303Z" fill="#4BABFF"/>
<path d="M112.892 168.649C113.107 168.649 113.323 168.668 113.536 168.704L115.379 168.926C116.969 169.116 119.298 169.385 122.167 169.607C123.605 169.71 125.179 169.797 126.864 169.828C128.658 169.876 130.453 169.805 132.237 169.615C133.192 169.51 134.132 169.303 135.042 168.997C135.496 168.843 135.923 168.618 136.306 168.332C136.488 168.192 136.647 168.023 136.775 167.833C136.9 167.647 136.984 167.436 137.022 167.215C137.025 167.157 137.025 167.099 137.022 167.041C137.026 166.983 137.026 166.925 137.022 166.867V165.695C137.022 165.164 137.022 164.642 137.022 164.111C137.022 163.042 136.926 161.965 136.847 160.88C136.727 159.297 136.561 157.816 136.354 156.351C136.243 155.623 136.123 154.902 135.996 154.197C135.869 153.492 135.718 152.796 135.551 152.138C135.016 149.119 134.708 146.065 134.629 143C134.567 140.574 134.958 138.158 135.782 135.874C136.123 134.908 136.473 134.068 136.775 133.332L137.188 132.255L137.53 131.392C137.745 130.877 137.888 130.473 137.991 130.212C138.035 130.069 138.1 129.933 138.182 129.808C138.159 129.954 138.122 130.097 138.071 130.236C137.983 130.513 137.864 130.925 137.681 131.447L137.371 132.318C137.252 132.635 137.125 132.983 136.982 133.356C136.704 134.147 136.37 134.939 136.052 135.913C135.277 138.185 134.929 140.579 135.027 142.977C135.131 146.016 135.458 149.044 136.004 152.035C136.179 152.724 136.322 153.421 136.457 154.134C136.592 154.847 136.72 155.567 136.823 156.311C137.037 157.784 137.212 159.313 137.331 160.865C137.411 161.965 137.475 163.05 137.506 164.119C137.506 164.65 137.506 165.18 137.506 165.703C137.506 165.964 137.506 166.226 137.506 166.495V166.891C137.51 166.959 137.51 167.028 137.506 167.097C137.51 167.168 137.51 167.239 137.506 167.31C137.459 167.594 137.351 167.864 137.188 168.102C137.029 168.333 136.836 168.538 136.616 168.712C136.19 169.025 135.719 169.271 135.217 169.44C134.274 169.754 133.298 169.961 132.308 170.058C130.503 170.246 128.686 170.307 126.872 170.24C125.171 170.193 123.598 170.082 122.159 169.955C119.282 169.694 116.969 169.369 115.371 169.163C114.577 169.037 113.957 168.926 113.536 168.847C113.314 168.804 113.098 168.738 112.892 168.649Z" fill="#3C87DF"/>
<path d="M93.8014 160.146C93.8014 160.146 102.075 161.889 101.932 167.115L97.4892 171.43C97.4892 171.43 94.0637 169.308 93.8014 160.146Z" fill="#FCCAB1"/>
<path d="M86.544 127.792C86.544 127.792 75.9892 145.363 78.8823 170.132C81.6561 193.682 110.96 183.934 110.96 183.934L132.896 175.699L129.24 166.957C129.24 166.957 95.5172 182.604 94.6032 164.581C94.023 153.17 103.251 132.44 86.544 127.792Z" fill="#4BABFF"/>
<path d="M131.459 172.823C131.381 172.711 131.309 172.594 131.244 172.474L130.696 171.437C130.219 170.526 129.536 169.188 128.669 167.478L128.836 167.549C125.991 168.452 122.168 169.552 117.669 170.716C115.42 171.287 113.004 171.872 110.453 172.411C109.173 172.68 107.854 172.926 106.479 173.132C105.098 173.36 103.698 173.453 102.298 173.409C101.135 173.374 99.9882 173.13 98.9124 172.688C98.3836 172.463 97.8866 172.17 97.4341 171.817L97.1083 171.54C96.997 171.445 96.9096 171.334 96.8063 171.231C96.6159 171.025 96.4381 170.809 96.2737 170.582C95.6809 169.671 95.2457 168.667 94.9862 167.612C94.716 166.599 94.5332 165.593 94.3504 164.619C94.1676 163.645 93.9768 162.711 93.8178 161.776C93.7463 161.317 93.6668 160.858 93.6033 160.406C93.5397 159.955 93.492 159.504 93.4363 159.068C93.2377 157.318 93.1264 155.679 93.0548 154.182C92.9833 152.686 92.9674 151.324 92.9754 150.136C92.9833 148.948 93.0151 147.919 93.0548 147.079C93.0946 146.24 93.1582 145.599 93.2138 145.163C93.2268 144.938 93.2668 144.714 93.333 144.498C93.349 144.722 93.349 144.947 93.333 145.171C93.333 145.607 93.2853 146.256 93.2694 147.087C93.2535 147.919 93.2694 148.948 93.2694 150.136C93.2694 151.324 93.3251 152.67 93.4205 154.159C93.5158 155.647 93.643 157.279 93.8576 159.021C93.9212 159.456 93.9768 159.9 94.0404 160.343C94.104 160.787 94.1914 161.246 94.2629 161.705C94.4219 162.624 94.6285 163.566 94.8193 164.54C95.01 165.514 95.1849 166.504 95.4551 167.494C95.6937 168.489 96.0995 169.436 96.6552 170.297C96.8063 170.508 96.9709 170.709 97.148 170.898C97.2347 170.997 97.3276 171.089 97.4262 171.176L97.7203 171.437C97.8243 171.52 97.9331 171.596 98.0461 171.667C98.1574 171.73 98.2607 171.817 98.3799 171.88L98.7296 172.07C98.8489 172.134 98.976 172.181 99.0952 172.237C100.118 172.657 101.209 172.887 102.314 172.918C103.681 172.956 105.049 172.866 106.399 172.648C107.743 172.443 109.046 172.205 110.326 171.944C112.869 171.421 115.285 170.851 117.534 170.297C122.033 169.188 125.864 168.143 128.725 167.296H128.836L128.892 167.398C129.687 169.117 130.362 170.471 130.791 171.405C131.014 171.865 131.181 172.197 131.284 172.474C131.357 172.582 131.416 172.7 131.459 172.823Z" fill="#3C87DF"/>
<path d="M136.824 160.884L128.923 168.462L131.459 172.833C131.459 172.833 137.261 168.462 137.388 167.67C137.515 166.878 136.824 160.884 136.824 160.884Z" fill="#FCCAB1"/>
</g>
<path d="M207.661 143.337L201.11 153.648L157.417 127.192L163.968 116.884L207.661 143.337Z" fill="#5D7A7F"/>
<path opacity="0.18" d="M158.642 127.875L183.764 129.139L165.043 117.497C165.043 117.497 162.054 123.662 158.642 127.875Z" fill="black"/>
<path opacity="0.3" d="M120.653 142.619C147.049 142.619 168.446 121.359 168.446 95.1326C168.446 68.9065 147.049 47.646 120.653 47.646C94.2579 47.646 72.8602 68.9065 72.8602 95.1326C72.8602 121.359 94.2579 142.619 120.653 142.619Z" fill="#F2F2F2"/>
<path opacity="0.3" d="M138.51 132.419C129.955 134.805 120.98 135.429 112.161 134.252C103.671 133.168 94.5877 130.669 87.486 125.832C84.5103 123.852 81.8529 121.456 79.6003 118.723C86.0044 129.212 96.4245 136.823 108.59 139.897C127.826 144.758 147.353 137.44 158.643 122.859C152.699 127.27 145.615 130.41 138.51 132.419Z" fill="white"/>
<path d="M245.925 172.559L243.146 177.025C242.714 177.725 242.145 178.334 241.473 178.815C240.802 179.296 240.04 179.641 239.233 179.83C238.425 180.018 237.588 180.046 236.769 179.913C235.95 179.779 235.167 179.487 234.463 179.052L190.384 151.796C190.149 151.651 189.983 151.42 189.92 151.154C189.857 150.888 189.902 150.608 190.047 150.375L198.393 136.978C198.464 136.863 198.558 136.764 198.669 136.685C198.779 136.606 198.905 136.55 199.037 136.519C199.17 136.488 199.308 136.483 199.442 136.505C199.577 136.527 199.706 136.574 199.821 136.645L243.898 163.901C245.321 164.79 246.332 166.198 246.711 167.819C247.091 169.439 246.808 171.143 245.925 172.559Z" fill="#153E49"/>
<path d="M207.66 140.704L198.421 156.099L196.631 154.951L205.87 139.556L207.66 140.704Z" fill="#F7D77F"/>
<path d="M211.95 143.767L202.713 159.163L200.921 158.015L210.16 142.619L211.95 143.767Z" fill="#F7D77F"/>
<path d="M164.402 122.106C149.436 146.086 117.64 153.496 93.517 138.622C69.3938 123.749 61.9413 92.1366 76.9014 68.1564C91.8615 44.1763 123.657 36.7698 147.786 51.643C171.916 66.5162 179.365 98.1407 164.402 122.106ZM80.8965 70.6153C67.2894 92.4225 74.0639 121.14 95.991 134.659C117.918 148.178 146.815 141.442 160.413 119.647C174.011 97.8518 167.239 69.1225 145.315 55.6066C123.391 42.0907 94.4882 48.82 80.8965 70.6153Z" fill="#153E49"/>
<path d="M125.678 54.0493C118.863 52.2799 111.386 53.2448 104.975 56.1147C99.4428 58.5746 94.0629 63.2971 92.5001 69.4624C92.2635 70.3871 93.371 71.466 94.1691 70.6276C97.9074 66.6911 101.858 63.2293 106.844 61.0715C112.545 58.6054 118.578 58.8705 124.607 59.1973C127.441 59.3606 128.631 54.8015 125.678 54.0493Z" fill="#F8F8F8"/>
<path d="M120.348 142.006C94.1619 142.006 72.8602 120.841 72.8602 94.8187C72.8602 68.7965 94.1619 47.646 120.348 47.646C146.535 47.646 167.833 68.7995 167.833 94.8187C167.833 120.838 146.526 142.006 120.348 142.006ZM120.348 48.5276C94.6599 48.5276 73.7614 69.29 73.7614 94.8187C73.7614 120.347 94.6599 141.11 120.348 141.11C146.037 141.11 166.932 120.347 166.932 94.8187C166.932 69.29 146.034 48.5276 120.348 48.5276Z" fill="white"/>
</g>
<defs>
<clipPath id="clip0_1015_2957">
<rect width="266" height="228.594" fill="white"/>
</clipPath>
<clipPath id="clip1_1015_2957">
<rect width="72.3417" height="299.012" fill="white" transform="translate(78.3745 62.3516)"/>
</clipPath>
</defs>
</svg>
