<svg width="62" height="45" viewBox="0 0 62 45" fill="none" xmlns="http://www.w3.org/2000/svg">
<path d="M14.857 21V6.6H20.417C20.557 6.6 20.7137 6.60667 20.887 6.62C21.067 6.62667 21.247 6.64667 21.427 6.68C22.1804 6.79333 22.817 7.05667 23.337 7.47C23.8637 7.87667 24.2604 8.39 24.527 9.01C24.8004 9.63 24.937 10.3167 24.937 11.07C24.937 11.8167 24.8004 12.5 24.527 13.12C24.2537 13.74 23.8537 14.2567 23.327 14.67C22.807 15.0767 22.1737 15.3367 21.427 15.45C21.247 15.4767 21.067 15.4967 20.887 15.51C20.7137 15.5233 20.557 15.53 20.417 15.53H16.327V21H14.857ZM16.327 14.13H20.377C20.497 14.13 20.637 14.1233 20.797 14.11C20.957 14.0967 21.1137 14.0733 21.267 14.04C21.7604 13.9333 22.1637 13.73 22.477 13.43C22.797 13.13 23.0337 12.7733 23.187 12.36C23.347 11.9467 23.427 11.5167 23.427 11.07C23.427 10.6233 23.347 10.1933 23.187 9.78C23.0337 9.36 22.797 9 22.477 8.7C22.1637 8.4 21.7604 8.19667 21.267 8.09C21.1137 8.05667 20.957 8.03667 20.797 8.03C20.637 8.01667 20.497 8.01 20.377 8.01H16.327V14.13ZM27.7273 21V6.6H29.1973V21H27.7273ZM32.7953 21V6.6H34.2753L42.2053 18.4V6.6H43.6853V21H42.2053L34.2753 9.19V21H32.7953Z" fill="white"/>
<path d="M8.50338 39.8638C8.33937 39.7573 8.24565 39.6271 8.22222 39.4732C8.19879 39.3075 8.2515 39.13 8.38037 38.9406L9.57531 37.0232L9.80375 37.3605L7.55446 37.4315C7.33187 37.4433 7.15029 37.4019 7.00971 37.3072C6.88084 37.2125 6.81641 37.0646 6.81641 36.8634C6.81641 36.6858 6.88084 36.5497 7.00971 36.455C7.15029 36.3485 7.33187 36.3071 7.55446 36.3308L9.80375 36.4195L9.59288 36.7391L8.39794 34.8217C8.26908 34.6205 8.21636 34.437 8.23979 34.2713C8.26322 34.1056 8.35694 33.9813 8.52095 33.8985C8.67325 33.7919 8.82554 33.7801 8.97784 33.863C9.14185 33.9458 9.27072 34.0878 9.36444 34.2891L10.3309 36.1887H10.1376L11.0866 34.2891C11.192 34.0878 11.3209 33.9458 11.4732 33.863C11.6372 33.7801 11.8012 33.7919 11.9652 33.8985C12.1292 33.9932 12.2171 34.1234 12.2288 34.2891C12.2522 34.4548 12.1995 34.6323 12.0706 34.8217L10.8757 36.7213L10.6648 36.4195L12.9141 36.3308C13.1367 36.3071 13.3124 36.3485 13.4413 36.455C13.5702 36.5497 13.6346 36.6858 13.6346 36.8634C13.6346 37.0646 13.5702 37.2125 13.4413 37.3072C13.3124 37.4019 13.1367 37.4433 12.9141 37.4315L10.6648 37.3605L10.8757 37.0232L12.0706 38.9406C12.1995 39.13 12.2522 39.3016 12.2288 39.4555C12.2171 39.6093 12.1292 39.7395 11.9652 39.846C11.7895 39.9407 11.6255 39.9526 11.4732 39.8815C11.3209 39.8105 11.192 39.6744 11.0866 39.4732L10.1376 37.5735H10.3309L9.36444 39.4732C9.259 39.6744 9.13014 39.8165 8.97784 39.8993C8.82554 39.9703 8.66739 39.9585 8.50338 39.8638Z" fill="white"/>
<path d="M22.1391 39.8638C21.9751 39.7573 21.8814 39.6271 21.858 39.4732C21.8345 39.3075 21.8872 39.13 22.0161 38.9406L23.2111 37.0232L23.4395 37.3605L21.1902 37.4315C20.9676 37.4433 20.786 37.4019 20.6454 37.3072C20.5166 37.2125 20.4521 37.0646 20.4521 36.8634C20.4521 36.6858 20.5166 36.5497 20.6454 36.455C20.786 36.3485 20.9676 36.3071 21.1902 36.3308L23.4395 36.4195L23.2286 36.7391L22.0337 34.8217C21.9048 34.6205 21.8521 34.437 21.8755 34.2713C21.899 34.1056 21.9927 33.9813 22.1567 33.8985C22.309 33.7919 22.4613 33.7801 22.6136 33.863C22.7776 33.9458 22.9065 34.0878 23.0002 34.2891L23.9667 36.1887H23.7734L24.7223 34.2891C24.8277 34.0878 24.9566 33.9458 25.1089 33.863C25.2729 33.7801 25.4369 33.7919 25.6009 33.8985C25.7649 33.9932 25.8528 34.1234 25.8645 34.2891C25.8879 34.4548 25.8352 34.6323 25.7064 34.8217L24.5114 36.7213L24.3006 36.4195L26.5499 36.3308C26.7724 36.3071 26.9482 36.3485 27.077 36.455C27.2059 36.5497 27.2703 36.6858 27.2703 36.8634C27.2703 37.0646 27.2059 37.2125 27.077 37.3072C26.9482 37.4019 26.7724 37.4433 26.5499 37.4315L24.3006 37.3605L24.5114 37.0232L25.7064 38.9406C25.8352 39.13 25.8879 39.3016 25.8645 39.4555C25.8528 39.6093 25.7649 39.7395 25.6009 39.846C25.4252 39.9407 25.2612 39.9526 25.1089 39.8815C24.9566 39.8105 24.8277 39.6744 24.7223 39.4732L23.7734 37.5735H23.9667L23.0002 39.4732C22.8947 39.6744 22.7659 39.8165 22.6136 39.8993C22.4613 39.9703 22.3031 39.9585 22.1391 39.8638Z" fill="white"/>
<path d="M49.4126 39.8638C49.2485 39.7573 49.1548 39.6271 49.1314 39.4732C49.108 39.3075 49.1607 39.13 49.2896 38.9406L50.4845 37.0232L50.7129 37.3605L48.4636 37.4315C48.241 37.4433 48.0595 37.4019 47.9189 37.3072C47.79 37.2125 47.7256 37.0646 47.7256 36.8634C47.7256 36.6858 47.79 36.5497 47.9189 36.455C48.0595 36.3485 48.241 36.3071 48.4636 36.3308L50.7129 36.4195L50.5021 36.7391L49.3071 34.8217C49.1783 34.6205 49.1255 34.437 49.149 34.2713C49.1724 34.1056 49.2661 33.9813 49.4301 33.8985C49.5824 33.7919 49.7347 33.7801 49.887 33.863C50.051 33.9458 50.1799 34.0878 50.2736 34.2891L51.2401 36.1887H51.0468L51.9957 34.2891C52.1012 34.0878 52.23 33.9458 52.3823 33.863C52.5463 33.7801 52.7104 33.7919 52.8744 33.8985C53.0384 33.9932 53.1262 34.1234 53.138 34.2891C53.1614 34.4548 53.1087 34.6323 52.9798 34.8217L51.7849 36.7213L51.574 36.4195L53.8233 36.3308C54.0459 36.3071 54.2216 36.3485 54.3505 36.455C54.4793 36.5497 54.5438 36.6858 54.5438 36.8634C54.5438 37.0646 54.4793 37.2125 54.3505 37.3072C54.2216 37.4019 54.0459 37.4433 53.8233 37.4315L51.574 37.3605L51.7849 37.0232L52.9798 38.9406C53.1087 39.13 53.1614 39.3016 53.138 39.4555C53.1262 39.6093 53.0384 39.7395 52.8744 39.846C52.6986 39.9407 52.5346 39.9526 52.3823 39.8815C52.23 39.8105 52.1012 39.6744 51.9957 39.4732L51.0468 37.5735H51.2401L50.2736 39.4732C50.1682 39.6744 50.0393 39.8165 49.887 39.8993C49.7347 39.9703 49.5766 39.9585 49.4126 39.8638Z" fill="white"/>
<path d="M35.7768 39.8638C35.6128 39.7573 35.5191 39.6271 35.4957 39.4732C35.4722 39.3075 35.5249 39.13 35.6538 38.9406L36.8487 37.0232L37.0772 37.3605L34.8279 37.4315C34.6053 37.4433 34.4237 37.4019 34.2831 37.3072C34.1543 37.2125 34.0898 37.0646 34.0898 36.8634C34.0898 36.6858 34.1543 36.5497 34.2831 36.455C34.4237 36.3485 34.6053 36.3071 34.8279 36.3308L37.0772 36.4195L36.8663 36.7391L35.6714 34.8217C35.5425 34.6205 35.4898 34.437 35.5132 34.2713C35.5367 34.1056 35.6304 33.9813 35.7944 33.8985C35.9467 33.7919 36.099 33.7801 36.2513 33.863C36.4153 33.9458 36.5442 34.0878 36.6379 34.2891L37.6044 36.1887H37.4111L38.36 34.2891C38.4654 34.0878 38.5943 33.9458 38.7466 33.863C38.9106 33.7801 39.0746 33.7919 39.2386 33.8985C39.4026 33.9932 39.4905 34.1234 39.5022 34.2891C39.5256 34.4548 39.4729 34.6323 39.3441 34.8217L38.1491 36.7213L37.9383 36.4195L40.1875 36.3308C40.4101 36.3071 40.5859 36.3485 40.7147 36.455C40.8436 36.5497 40.908 36.6858 40.908 36.8634C40.908 37.0646 40.8436 37.2125 40.7147 37.3072C40.5859 37.4019 40.4101 37.4433 40.1875 37.4315L37.9383 37.3605L38.1491 37.0232L39.3441 38.9406C39.4729 39.13 39.5256 39.3016 39.5022 39.4555C39.4905 39.6093 39.4026 39.7395 39.2386 39.846C39.0629 39.9407 38.8989 39.9526 38.7466 39.8815C38.5943 39.8105 38.4654 39.6744 38.36 39.4732L37.4111 37.5735H37.6044L36.6379 39.4732C36.5324 39.6744 36.4036 39.8165 36.2513 39.8993C36.099 39.9703 35.9408 39.9585 35.7768 39.8638Z" fill="white"/>
<rect x="0.125" y="28.7949" width="61.2045" height="15.1136" rx="7.55682" stroke="white" stroke-width="0.25"/>
</svg>
