<svg xmlns="http://www.w3.org/2000/svg" viewBox="0.5 26.92 1609.5 797.08">
  <path d="M114.6 484.07c1.32-19.47 2.64-29.05 3.96-48.52.99-18.81-5.94-23.76-15.84-23.76-10.89 0-21.78 9.9-23.76 41.59-4.34 69.41-12.98 133.56-16.83 202.99-.99 17.82 6.93 21.78 12.87 22.77 12.87.99 23.76-8.91 25.75-29.71 1.6-16.81 2.64-33.67 3.96-50.5 16.17-2.31 33.94-4.31 50.11-6.62-.99 17.82-2.58 30.39-4.57 48.21-.38 4.25-4.95 54.46-47.53 80.21-9.59 5.23-37.63 15.84-61.39 7.92-16.41-5.47-32.68-27.73-31.69-56.44 2.61-75.8 15.59-200.04 16.83-217.84 2.97-42.58 30.7-88.13 76.25-93.08 7.92-.99 28.72-2.97 41.59 5.94 17.82 12.87 23.76 33.67 23.76 51.49 0 18.84-1.98 31.69-3.96 59.41 0 0-33.01 3.63-49.51 5.94zm68.2-128.38c-10.23 120.47-19.98 242.25-30.21 362.72 16.83-2.31 33.18-5.92 50.01-8.23.13-1.6.35-4.18.58-7.35 6.75-91.01 9.89-149.97 15.26-195.64 1.98-16.83 16.45-25.66 22.77-24.75 1.96.28 7.92.99 6.93 12.87-5.61 70.96-12.52 139.97-18.13 210.94 16.5-2.31 33.31-5.64 49.81-7.95l17.82-213.88c.99-18.81.36-28.4-4.95-39.61-8.91-18.81-28.78-14.58-30.7-13.86-15.84 5.94-24.75 17.82-38.62 31.69 2.97-37.96 5.94-76.91 8.91-114.86-16.47 2.63-32.97 5.27-49.48 7.91zm235.56 61.92c-22.8-18.4-68.32-12.87-94.07 24.76-5.54 8.09-13.89 24.6-16.83 44.56-.69 4.7-.89 8.25-.99 9.9-2.86 47.92-7.11 82.88-9.9 123.77-2.97 43.57 13.86 67.33 51.49 66.34 20.78-.54 56.34-14.55 71.29-59.41 5.94-17.82 6.93-51.49 6.93-51.49l-46.54 6.93c-.66 11.56-.08 20.27-1.98 31.69-3.96 23.76-14.85 28.72-23.76 27.73-6.13-.68-12.87-6.93-11.88-23.76 1.32-20.79 3.63-38.62 4.95-59.41 27.4-4.29 54.79-8.59 82.19-12.87l5.94-78.23c.35-4 2.65-34.78-16.84-50.51zm-28.72 55.45c-1.07 12.86-1.98 27.73-2.97 41.59l-35.65 4.95s-.3-31.79 5.94-50.5c1.98-5.94 6.93-14.85 16.83-16.83 12.96-2.6 16.84 8.91 15.85 20.79zm104.2-5.94c-5.94 65.35-7.19 88.1-10.89 130.71-1.98 22.77 4.95 23.76 9.9 23.76 8.91 0 16.83-2.97 18.81-29.71.95-12.88.99-12.87 1.98-32.68 16.17-1.98 33.34-3.96 49.51-5.94 0 4.95-.25 10.64-.74 16.96 0 0-1.08 11.45-2.23 20.67-4.95 39.57-24.72 55.42-24.75 55.45-22.2 22.2-70.28 27.81-87.48 5.7-6.93-8.91-13.27-19.91-11.06-64.16 2-40.02 5.14-73.9 8.44-113.83.59-6.89 4.62-52.74 37.63-75.26 6.89-4.7 33.54-16.09 60.4-10.89 30.7 5.94 28.72 42.58 28.72 47.53 0 15.87-1.98 34.59-1.98 41.59 0 .99-33.01 4.62-49.51 6.93.99-13.53 1.98-22.11 2.97-35.65.99-12.87-2.88-15.07-7.92-15.84-6.95-1.06-17.82 3.96-19.8 17.82-.61 4.4-1.17 7.72-2 16.84zm101.23-176.8c16.59-2.21 36.1-4.39 52.6-7.03-4.95 57.43-8.91 114.86-13.86 172.29h1.98c11.55-28.06 23.1-56.11 34.66-84.17l42.58-5.94c-13.86 30.7-27.73 61.39-41.59 92.09 9.57 58.42 19.14 116.84 28.72 175.27l-47.53 6.93c-4.95-35.98-10.89-71.95-15.84-107.93h-1.98l-9.9 20.79-7.92 93.08c-16.17 2.31-33.39 5.14-49.56 7.45 9.89-120.48 17.74-242.36 27.64-362.83zm120.81-18.04 48.52-7.92 4.95 197.05h2.97c13.86-67.99 27.73-135.99 41.59-203.98l37.63-5.94 6.93 196.06h3.96c13.2-67.99 26.41-135.14 39.61-203.13 16.17-2.31 32.34-5.47 48.52-7.78-26.41 123.11-52.81 246.23-79.22 369.34-13.86 1.98-31.21 5.37-45.08 7.35-3.3-62.71-3.11-126.83-6.41-189.54h-1.98c-14.52 65.68-29.05 131.37-43.57 197.05-13.86 1.98-28.2 4.89-42.06 6.87-5.61-118.17-10.75-237.26-16.36-355.43zm379.07 1.87c-8.91-64.36-80.08-47.4-83.18-47.53-16.51 2.64-35.15 5.75-51.66 8.39-10.23 120.48-19.64 241.25-29.87 361.72 17.5-2.31 36.3-5.4 53.8-7.7 4.29-51.16 8.59-102.32 12.87-153.48l14.85-.99 14.85 147.54 51.49-7.92c-5.94-56.77-11.88-113.55-17.82-170.31 36.65-28.72 38.92-99.07 34.67-129.72zm-50.5 61.39c-2.4 24-16.83 49.51-42.58 50.5l8.91-107.93c25.75-1.98 38.62 7.92 33.67 57.43zm554.82-139.28c-8.91-64.36-80.08-47.4-83.18-47.53-11.59 1.86-18.5 2.95-49.51 7.92-10.23 120.48-20.58 242.18-30.81 362.65 17.5-2.31 35.1-5.85 52.6-8.16l12.87-153.48 14.85-.99 14.85 147.54 51.49-7.92c-5.94-56.77-11.88-113.55-17.82-170.31 36.64-28.72 38.91-99.07 34.66-129.72zm-50.5 61.39c-2.4 24-16.83 49.51-42.58 50.5l8.91-107.93c25.75-1.98 38.62 7.92 33.67 57.43zm-430.93-47.98c-10.23 120.8-20.28 243.03-30.51 363.84 17.49-2.64 35.6-5.1 53.1-7.74 3.09-36.73 11.44-146.57 14.55-183.3 3.08-36.38 11.26-144.34 14.36-180.71-6.25.83-11.56 1.71-17.91 2.64-11.41 1.65-22.6 3.41-33.59 5.27zm60.75-8.4c-.55-.55-2.22 36.27-3.87 54.76 16.17-2.31 31.73-4.44 47.91-6.75-8.58 102.32-17.16 204.64-25.75 306.96l52.48-7.92c8.58-102.65 17.16-205.3 25.75-307.95 16.17-2.31 31.67-4.15 47.84-6.46 1.32-18.48 3.66-37.38 4.98-55.86-49.52 7.58-99.83 15.63-149.34 23.22zm158.18-24.34c-10.23 120.47-20.19 241.8-30.42 362.28 39.94-5.94 81.24-12.8 121.18-18.74l3.96-53.47-67.33 9.9 7.92-100.01 49.51-6.93 3.96-57.43-48.52 6.93 7.92-96.05 68.32-9.9c1.32-18.15 3.63-36.31 4.95-54.46-39.6 5.94-81.84 11.94-121.45 17.88zm-353.19-40.42v-11.75M1610 574.09C1073.51 657.39 537 740.69.5 824v-11.5C537.14 729.12 1073.92 645.43 1610 562.18v11.91zM582 186.83v11.62c-193.84 30.1-387.67 60.2-581.5 90.3v-11.51c193.83-30.1 387.67-60.25 581.5-90.41zM1610 26.92v11.91c-208.7 32.4-417.4 64.81-626.1 97.21v-11.77c208.77-32.48 417.48-64.95 626.1-97.35zM748.83 128.14v65.27h-23.27l-26.51-43.18v43.18h-18.8v-65.27h25.84l23.94 38.98v-38.98zm7.43 65.27h48.09v-14.38h-28.76v-50.89h-19.33zm54.62-65.27h19.91v65.27h-19.91zm120.79 14.38v12.17h27.66v13.28h-27.66v11.06h34.29v14.38h-52.7v-65.27h52.7v14.38zm-25.65-14.38v65.27h-23.28l-26.5-43.18v43.18h-18.81v-65.27h25.84l23.94 38.98v-38.98zm-269.64 0C615 128.14 600 142.98 600 161s15 32.41 36.38 32.41c21.38 0 36.62-14.39 36.62-32.41 0-18.02-15.23-32.86-36.62-32.86zm0 50.89c-10.08 0-18.25-8.17-18.25-18.25s8.17-18.25 18.25-18.25 18.25 8.17 18.25 18.25c.01 10.07-8.17 18.25-18.25 18.25z" style="fill:#fff"/>
</svg>
